<?xml version="1.0" encoding="utf-8"?>
<svg viewBox="0 0 500 500" xmlns="http://www.w3.org/2000/svg">
  <path d="M 494.766 86.891 L 492.411 87.829 L 491.488 88.197 L 488.634 88.04 L 485.961 89.323 L 481.221 92.562 L 481.012 92.712 L 479.245 93.173 L 477.604 92.465 L 476.672 92.889 L 476.351 94.809 L 475.464 96.188 L 474.372 96.955 L 470.589 97.342 L 467.399 98.987 L 463.249 97.876 L 461.321 98.631 L 457.221 102.323 L 455.126 103.315 L 454.394 103.273 L 451.616 103.13 L 450.443 103.514 L 448.691 105.207 L 445.376 105.465 L 444.343 106.18 L 442.725 109.44 L 440.972 111.248 L 439.972 111.46 L 438.885 111.06 L 438.068 111.204 L 437.698 113.29 L 436.905 114.164 L 434.686 114.928 L 432.913 116.405 L 431.357 117.205 L 429.273 117.153 L 428.794 117.153 L 426.718 118.299 L 422.818 118.641 L 421.194 120.19 L 420.836 120.521 L 420.078 120.979 L 418.838 121.719 L 418.538 121.903 L 417.038 121.636 L 415.288 122.329 L 414.58 121.24 L 413.369 121.967 L 411.769 122.036 L 409.769 121.147 L 408.247 120.469 L 407.134 120.63 L 406.747 122.57 L 406.708 122.776 L 405.538 124.333 L 403.354 125.656 L 403.054 126.043 L 400.569 129.251 L 395.847 134.217 L 391.854 136.245 L 387.715 137.504 L 384.815 139.884 L 377.215 143.651 L 365.22 149.624 L 362.767 150.41 L 359.247 150.972 L 352.969 153.284 L 347.43 154.955 L 347.122 155.049 L 346.022 155.381 L 338.212 157.744 L 334.577 157.36 L 332.424 158.142 L 326.819 157.52 L 322.919 157.597 L 320.452 158.11 L 315.815 160.334 L 307.988 164.096 L 305.402 166.462 L 301.375 168.562 L 296.66 170.055 L 296.671 168.074 L 296.643 167.99 L 295.007 168.507 L 293.826 168.88 L 290.001 169.47 L 287.873 169.47 L 286.552 169.086 L 286.352 169.155 L 278.534 171.724 L 269.815 172.566 L 265.452 173.966 L 262.192 173.914 L 260.154 174.52 L 256.154 175.009 L 254.726 174.628 L 254.404 174.54 L 242.654 175.05 L 237.282 174.443 L 234.718 175.026 L 230.418 173.58 L 224.149 172.853 L 222.684 172.414 L 219.384 171.436 L 217.893 172.295 L 216.777 172.414 L 214.11 171.447 L 213.15 171.423 L 210.95 172.223 L 209.683 171.898 L 208.506 170.96 L 205.745 170.549 L 204.063 169.135 L 194.663 170.381 L 192.112 169.631 L 183.558 167.139 L 182.197 167.208 L 180.497 168.479 L 177.949 169.408 L 175.737 169.983 L 172.725 170.083 L 169.225 169.165 L 165.619 167.417 L 164.286 167.1 L 161.312 167.4 L 160.402 167.482 L 154.936 164.55 L 147.894 160.15 L 143.116 157.85 L 141.322 157.559 L 141.081 158.412 L 141.971 161.212 L 142.271 163.986 L 142.18 166.549 L 142.131 168.136 L 142.577 169.561 L 144.302 171.473 L 145.021 173.393 L 145.547 178.677 L 145.541 184.039 L 144.702 192.59 L 144.419 193.89 L 143.419 198.32 L 142.505 202.389 L 138.959 213.222 L 137.985 214.565 L 135.594 216.196 L 130.175 219.884 L 126.185 222.184 L 124.922 222.707 L 121.683 222.952 L 119.665 222.852 L 117.152 221.491 L 114.685 220.856 L 111.453 218.532 L 107.853 217.788 L 103.912 215.51 L 102.886 214.277 L 100.74 214.077 L 97.764 213.184 L 97.764 213.179 L 96.671 212.852 L 95.916 212.632 L 92.116 212.532 L 88.576 210.898 L 86.712 210.448 L 84.165 210.319 L 81.499 211.558 L 80.148 212.187 L 78.441 211.509 L 77.206 211.586 L 75.806 213.701 L 75.634 214.024 L 74.67 214.534 L 73.47 214.517 L 72.531 214.492 L 71.515 214.936 L 70.147 215.529 L 68.939 216.056 L 68.349 216.311 L 68.339 216.301 L 67.976 216.374 L 67.331 216.486 L 66.531 216.639 L 65.121 215.815 L 64.371 215.373 L 63.114 215.117 L 62.437 215.606 L 62.304 217.906 L 61.686 219.284 L 59.725 221.018 L 57.732 222.773 L 56.343 224.82 L 52.667 233.21 L 50.367 236.595 L 49.652 237.384 L 47.234 240.044 L 45.098 241.701 L 40.176 245.516 L 35.517 247.257 L 31.504 248.077 L 29.553 248.085 L 25.853 247.593 L 22.53 246.573 L 18.88 244.291 L 14.88 241.074 L 9.086 235.35 L 8.266 234.857 L 8.095 234.743 L 6.27 233.576 L 4.916 233.611 L 4.386 234.485 L 4.096 235.748 L 3.851 236.868 L 3.187 243.235 L 3.236 243.604 L 3.585 246.226 L 7.985 252.376 L 9.343 255.643 L 9.566 256.016 L 10.474 257.541 L 11.165 258.704 L 11.234 258.822 L 12.734 263.31 L 11.677 265.844 L 12.211 267.544 L 10.875 268.581 L 10.63 270.046 L 14.581 274.999 L 15.443 277.184 L 14.48 280.213 L 12.944 281.884 L 12.515 282.341 L 12.731 283.621 L 14.549 285.256 L 17.638 288.006 L 19.285 292.092 L 20.538 293.192 L 21.994 292.882 L 22.804 293.5 L 24.032 293.479 L 25.24 294.687 L 26.022 295.066 L 27.258 295.682 L 28.235 296.954 L 28.451 300.865 L 30.273 305.725 L 30.301 308.36 L 30.311 308.734 L 31.445 310.682 L 31.801 312.22 L 31.201 316.289 L 32.646 317.595 L 34.213 317.275 L 35.225 317.435 L 36.851 318.789 L 38.82 321.789 L 40.746 321.507 L 41.968 322.096 L 47.868 327.43 L 49.207 328.106 L 49.281 328.148 L 50.244 328.631 L 51.444 329.839 L 53.3 328.607 L 53.506 328.586 L 55.524 328.408 L 56.41 329.008 L 58.11 330.157 L 60.344 330.128 L 65.188 331.613 L 67.307 332.156 L 71.568 334.804 L 73.379 335.924 L 74.451 336.795 L 75.875 337.956 L 78.72 339.18 L 81.16 339.764 L 82.482 340.078 L 83.482 340.462 L 83.507 340.4 L 83.521 340.4 L 83.497 340.463 L 88.781 342.486 L 91.643 343.154 L 94.291 344.129 L 96.218 344.829 L 97.632 344.852 L 99.632 343.17 L 101.569 343.058 L 103.178 343.458 L 104.748 343.195 L 107.233 341.664 L 107.718 340.945 L 109.48 340.106 L 115.424 339.368 L 117.161 339.932 L 121.621 337.992 L 124.609 338.823 L 127.254 337.885 L 133.033 339.169 L 134.569 340.25 L 136.286 342.215 L 136.496 342.224 L 138.408 342.261 L 137.608 343.592 L 140.131 346.239 L 142.41 349.684 L 142.564 350.139 L 144.221 355.003 L 145.453 356.726 L 146.315 359.131 L 146.357 360.699 L 145.017 361.721 L 144.797 362.304 L 144.721 362.52 L 144.993 363.175 L 145.499 362.899 L 146.462 362.366 L 147.634 362.184 L 149.7 362.404 L 151.064 362.547 L 153.218 361.478 L 154.645 360.768 L 156.938 361.755 L 159.458 361.727 L 160.516 362.198 L 163.516 363.556 L 165.045 363.7 L 165.61 363.329 L 165.97 362.473 L 165.785 361.473 L 164.634 360.154 L 162.103 357.216 L 161.067 355.706 L 160.278 353.52 L 160.034 350.724 L 159.86 348.839 L 160.174 346.362 L 160.854 345.478 L 161.354 343.51 L 161.363 343.51 L 161.492 342.995 L 162.898 341.129 L 166.622 338.736 L 170.622 335.154 L 173.784 333.069 L 177.044 331.657 L 177.131 331.257 L 177.494 331.403 L 185.786 328.584 L 185.923 328.568 L 189.615 327.925 L 214.535 329.68 L 215.459 329.401 L 215.459 329.395 L 216.289 327.065 L 216.736 326.633 L 217.036 326.351 L 219.776 325.145 L 221.057 324.962 L 224.613 325.84 L 226.069 326.199 L 228.401 324.892 L 230.055 324.92 L 233.472 323.054 L 235.583 323.107 L 236.383 322.786 L 240.495 319.831 L 244.456 318.696 L 245.486 318.148 L 245.849 317.948 L 249.909 315.804 L 252.488 313.823 L 254.714 312.64 L 257.152 312.011 L 263.532 311.562 L 264.815 309.424 L 267.559 309.058 L 269.216 307.188 L 271.116 306.417 L 272.475 304.459 L 273.614 302.818 L 275.205 301.897 L 280.305 301.577 L 286.35 302.326 L 287.15 301.841 L 288.516 296.966 L 289.946 296.051 L 293.797 290.439 L 293.81 288.394 L 293.81 286.686 L 294.443 284.254 L 294.013 279.863 L 294.523 275.417 L 296.917 269.767 L 299.026 267.488 L 302.426 265.188 L 304.155 264.435 L 306.604 264.023 L 306.604 264.024 L 306.964 263.963 L 307.588 263.856 L 316.021 263.74 C 316.138 263.653 319.088 263.698 319.088 263.698 L 321.9 263.66 L 329.016 264.924 L 329.522 265.012 L 331.922 265.791 L 334.696 267.948 L 337.634 270.817 L 338.185 271.352 L 340.085 272.152 L 340.66 272.403 L 342.231 272.152 L 344.468 270.987 L 346.156 269.56 L 348.456 268.303 L 348.512 268.223 L 349.807 266.275 L 349.846 266.235 L 349.874 266.242 L 349.874 266.231 L 349.852 266.231 L 350.363 265.456 L 354.81 263.723 L 360.04 263.423 L 360.628 263.105 L 360.955 262.93 L 362.337 261.307 L 363.632 261.297 L 366.767 262.431 L 368.967 261.993 L 370.717 262.693 L 372.077 262.532 L 374.642 262.232 L 377.396 264.169 L 379.001 264.369 L 384.659 267.679 L 384.953 267.727 L 385.105 267.755 L 385.429 267.809 L 386.1 267.609 L 387.1 267.32 L 387.232 267.281 L 387.358 267.456 L 388.001 268.363 L 388.883 268.489 L 389.927 267.096 L 389.512 266.464 L 389.355 266.234 L 387.334 265.823 L 385.519 262.723 L 387.247 260.862 L 384.536 257.536 L 384.086 256.985 L 383.933 256.751 L 382.996 255.328 L 378.25 248.093 L 372.068 243.158 L 369.903 241.426 L 369.889 241.416 L 369.131 240.816 L 365.831 237.458 L 363.473 234.328 L 363.164 233.654 L 362.677 232.592 L 361.264 229.514 L 358.802 227.614 L 356.796 225.423 L 356.696 225.294 L 352.556 219.668 L 351.876 218.725 L 350.898 218.16 L 348.832 218.146 L 348.632 217.946 L 348.516 217.825 L 348.586 217.751 L 349.577 216.766 L 350.682 216.488 L 351.158 215.399 L 349.05 209.299 L 349.036 209.086 L 348.879 207.136 L 350.597 198.281 L 350.817 197.202 L 353.745 191.244 L 355.559 189.758 L 357.539 185.866 L 359.239 183.378 L 360.864 181.796 L 361.148 181.628 L 364.082 179.852 L 366.547 179.505 L 368.895 179.174 L 372.995 180.438 L 376.895 180.362 L 377.656 180.281 L 379.426 180.081 L 382.337 179.164 L 383.711 178.316 L 384.424 177.223 L 385.911 172.236 L 386.389 170.649 L 387.306 168.925 L 392.612 162.817 L 396.623 159.107 L 405.642 152.494 L 410.057 149.855 L 412.311 148.508 L 432.437 139.562 L 437.667 134.262 L 440.392 131.504 L 445.213 128.269 L 450.854 125.958 L 455.708 122.116 L 456.768 120.782 L 458.104 116.482 L 459.217 116.213 L 460.217 114.039 L 460.503 113.421 L 464.464 110.629 L 464.912 110.406 L 480.3 102.696 L 482.536 103.003 L 483.736 101.21 L 488.213 100.459 L 489.037 100.319 L 490.137 99.768 L 491.076 98.168 L 491.076 97.852 L 491.205 93.579 L 492.161 92.424 L 492.682 89.608 L 493.173 88.958 L 493.686 88.282 L 494.954 87.391 L 494.734 86.86 L 494.766 86.891 Z" fill="#d57800"/>
  <path id="path4" style="fill: rgb(0, 0, 0); transform-origin: 205.179px 255.413px;" d="M 199.454 303.927 C 199.024 296.564 198.058 283.893 187.383 290.061 C 182.444 291.919 167.613 296.658 174.784 286.985 C 170.853 277.406 154.859 291.776 153.759 285.111 C 162.361 275.86 149.612 265.805 140.602 272.379 C 135.057 273.93 123.754 283.628 121.541 280.582 C 126.691 274.05 138.29 260.669 124.299 256.746 C 109.098 253.385 95.74 263.889 82.519 269.653 C 78.552 272.761 73.503 272.247 78.437 267.083 C 95.565 240.497 122.435 220.417 152.25 210.13 C 159.477 207.752 170.605 202.51 170.823 214.338 C 175.292 225.2 178.472 238.795 189.98 244.338 C 203.235 251.617 193.733 223.111 207.466 233.829 C 213.245 237.536 225.61 230.349 227.305 234.344 C 223.939 239.165 222.358 247.701 231.255 243.272 C 246.703 237.134 258.051 223.505 265.657 209.183 C 273.604 207.952 281.505 213.912 288.75 217.061 C 312.811 230.523 327.659 256.114 333.965 282.25 C 327.417 278.612 321.068 271.224 313.132 268.345 C 304.673 264.174 295.131 263.48 285.831 263.817 C 281.473 269.018 278.898 275.461 282.687 281.875 C 285.985 294.184 272.166 277.687 267.177 276.586 C 257.861 269.994 248.937 280.071 250.98 289.485 C 248.874 291.312 242.377 286.484 238.559 287.067 C 230.71 284.75 225.182 288.174 229.91 296.288 C 222.987 295.48 212.873 284.889 206.751 294.941 C 204.081 297.458 202.706 302.453 199.461 303.922 L 199.454 303.927 Z" transform="matrix(0.980965018272, -0.194187000394, 0.194187000394, 0.980965018272, 0.000001569832, 0.000004371542)"/>
</svg>