<?xml version="1.0" encoding="utf-8"?>
<svg viewBox="1.674 2.232 496.094 281.808" xmlns="http://www.w3.org/2000/svg">
  <path d="M 495.696 4.468 L 493.341 5.406 L 492.418 5.774 L 489.564 5.617 L 486.891 6.9 L 482.151 10.139 L 481.942 10.289 L 480.175 10.75 L 478.534 10.042 L 477.602 10.466 L 477.281 12.386 L 476.394 13.765 L 475.302 14.532 L 471.519 14.919 L 468.329 16.564 L 464.179 15.453 L 462.251 16.208 L 458.151 19.9 L 456.056 20.892 L 455.324 20.85 L 452.546 20.707 L 451.373 21.091 L 449.621 22.784 L 446.306 23.042 L 445.273 23.757 L 443.655 27.017 L 441.902 28.825 L 440.902 29.037 L 439.815 28.637 L 438.998 28.781 L 438.628 30.867 L 437.835 31.741 L 435.616 32.505 L 433.843 33.982 L 432.287 34.782 L 430.203 34.73 L 429.724 34.73 L 427.648 35.876 L 423.748 36.218 L 422.124 37.767 L 421.766 38.098 L 421.008 38.556 L 419.768 39.296 L 419.468 39.48 L 417.968 39.213 L 416.218 39.906 L 415.51 38.817 L 414.299 39.544 L 412.699 39.613 L 410.699 38.724 L 409.177 38.046 L 408.064 38.207 L 407.677 40.147 L 407.638 40.353 L 406.468 41.91 L 404.284 43.233 L 403.984 43.62 L 401.499 46.828 L 396.777 51.794 L 392.784 53.822 L 388.645 55.081 L 385.745 57.461 L 378.145 61.228 L 366.15 67.201 L 363.697 67.987 L 360.177 68.549 L 353.899 70.861 L 348.36 72.532 L 348.052 72.626 L 346.952 72.958 L 339.142 75.321 L 335.507 74.937 L 333.354 75.719 L 327.749 75.097 L 323.849 75.174 L 321.382 75.687 L 316.745 77.911 L 308.918 81.673 L 306.332 84.039 L 302.305 86.139 L 297.59 87.632 L 297.601 85.651 L 297.573 85.567 L 295.937 86.084 L 294.756 86.457 L 290.931 87.047 L 288.803 87.047 L 287.482 86.663 L 287.282 86.732 L 279.464 89.301 L 270.745 90.143 L 266.382 91.543 L 263.122 91.491 L 261.084 92.097 L 257.084 92.586 L 255.656 92.205 L 255.334 92.117 L 243.584 92.627 L 238.212 92.02 L 235.648 92.603 L 231.348 91.157 L 225.079 90.43 L 223.614 89.991 L 220.314 89.013 L 218.823 89.872 L 217.707 89.991 L 215.04 89.024 L 214.08 89 L 211.88 89.8 L 210.613 89.475 L 209.436 88.537 L 206.675 88.126 L 204.993 86.712 L 195.593 87.958 L 193.042 87.208 L 184.488 84.716 L 183.127 84.785 L 181.427 86.056 L 178.879 86.985 L 176.667 87.56 L 173.655 87.66 L 170.155 86.742 L 166.549 84.994 L 165.216 84.677 L 162.242 84.977 L 161.332 85.059 L 155.866 82.127 L 148.824 77.727 L 144.046 75.427 L 142.252 75.136 L 142.011 75.989 L 142.901 78.789 L 143.201 81.563 L 143.11 84.126 L 143.061 85.713 L 143.507 87.138 L 145.232 89.05 L 145.951 90.97 L 146.477 96.254 L 146.471 101.616 L 145.632 110.167 L 145.349 111.467 L 144.349 115.897 L 143.435 119.966 L 139.889 130.799 L 138.915 132.142 L 136.524 133.773 L 131.105 137.461 L 127.115 139.761 L 125.852 140.284 L 122.613 140.529 L 120.595 140.429 L 118.082 139.068 L 115.615 138.433 L 112.383 136.109 L 108.783 135.365 L 104.842 133.087 L 103.816 131.854 L 101.67 131.654 L 98.694 130.761 L 98.694 130.756 L 97.601 130.429 L 96.846 130.209 L 93.046 130.109 L 89.506 128.475 L 87.642 128.025 L 85.095 127.896 L 82.429 129.135 L 81.078 129.764 L 79.371 129.086 L 78.136 129.163 L 76.736 131.278 L 76.564 131.601 L 75.6 132.111 L 74.4 132.094 L 73.461 132.069 L 72.445 132.513 L 71.077 133.106 L 69.869 133.633 L 69.279 133.888 L 69.269 133.878 L 68.906 133.951 L 68.261 134.063 L 67.461 134.216 L 66.051 133.392 L 65.301 132.95 L 64.044 132.694 L 63.367 133.183 L 63.234 135.483 L 62.616 136.861 L 60.655 138.595 L 58.662 140.35 L 57.273 142.397 L 53.597 150.787 L 51.297 154.172 L 50.582 154.961 L 48.164 157.621 L 46.028 159.278 L 41.106 163.093 L 36.447 164.834 L 32.434 165.654 L 30.483 165.662 L 26.783 165.17 L 23.46 164.15 L 19.81 161.868 L 15.81 158.651 L 10.016 152.927 L 9.196 152.434 L 9.025 152.32 L 7.2 151.153 L 5.846 151.188 L 5.316 152.062 L 5.026 153.325 L 4.781 154.445 L 4.117 160.812 L 4.166 161.181 L 4.515 163.803 L 8.915 169.953 L 10.273 173.22 L 10.496 173.593 L 11.404 175.118 L 12.095 176.281 L 12.164 176.399 L 13.664 180.887 L 12.607 183.421 L 13.141 185.121 L 11.805 186.158 L 11.56 187.623 L 15.511 192.576 L 16.373 194.761 L 15.41 197.79 L 13.874 199.461 L 13.445 199.918 L 13.661 201.198 L 15.479 202.833 L 18.568 205.583 L 20.215 209.669 L 21.468 210.769 L 22.924 210.459 L 23.734 211.077 L 24.962 211.056 L 26.17 212.264 L 26.952 212.643 L 28.188 213.259 L 29.165 214.531 L 29.381 218.442 L 31.203 223.302 L 31.231 225.937 L 31.241 226.311 L 32.375 228.259 L 32.731 229.797 L 32.131 233.866 L 33.576 235.172 L 35.143 234.852 L 36.155 235.012 L 37.781 236.366 L 39.75 239.366 L 41.676 239.084 L 42.898 239.673 L 48.798 245.007 L 50.137 245.683 L 50.211 245.725 L 51.174 246.208 L 52.374 247.416 L 54.23 246.184 L 54.436 246.163 L 56.454 245.985 L 57.34 246.585 L 59.04 247.734 L 61.274 247.705 L 66.118 249.19 L 68.237 249.733 L 72.498 252.381 L 74.309 253.501 L 75.381 254.372 L 76.805 255.533 L 79.65 256.757 L 82.09 257.341 L 83.412 257.655 L 84.412 258.039 L 84.437 257.977 L 84.451 257.977 L 84.427 258.04 L 89.711 260.063 L 92.573 260.731 L 95.221 261.706 L 97.148 262.406 L 98.562 262.429 L 100.562 260.747 L 102.499 260.635 L 104.108 261.035 L 105.678 260.772 L 108.163 259.241 L 108.648 258.522 L 110.41 257.683 L 116.354 256.945 L 118.091 257.509 L 122.551 255.569 L 125.539 256.4 L 128.184 255.462 L 133.963 256.746 L 135.499 257.827 L 137.216 259.792 L 137.426 259.801 L 139.338 259.838 L 138.538 261.169 L 141.061 263.816 L 143.34 267.261 L 143.494 267.716 L 145.151 272.58 L 146.383 274.303 L 147.245 276.708 L 147.287 278.276 L 145.947 279.298 L 145.727 279.881 L 145.651 280.097 L 145.923 280.752 L 146.429 280.476 L 147.392 279.943 L 148.564 279.761 L 150.63 279.981 L 151.994 280.124 L 154.148 279.055 L 155.575 278.345 L 157.868 279.332 L 160.388 279.304 L 161.446 279.775 L 164.446 281.133 L 165.975 281.277 L 166.54 280.906 L 166.9 280.05 L 166.715 279.05 L 165.564 277.731 L 163.033 274.793 L 161.997 273.283 L 161.208 271.097 L 160.964 268.301 L 160.79 266.416 L 161.104 263.939 L 161.784 263.055 L 162.284 261.087 L 162.293 261.087 L 162.422 260.572 L 163.828 258.706 L 167.552 256.313 L 171.552 252.731 L 174.714 250.646 L 177.974 249.234 L 178.061 248.834 L 178.424 248.98 L 186.716 246.161 L 186.853 246.145 L 190.545 245.502 L 215.465 247.257 L 216.389 246.978 L 216.389 246.972 L 217.219 244.642 L 217.666 244.21 L 217.966 243.928 L 220.706 242.722 L 221.987 242.539 L 225.543 243.417 L 226.999 243.776 L 229.331 242.469 L 230.985 242.497 L 234.402 240.631 L 236.513 240.684 L 237.313 240.363 L 241.425 237.408 L 245.386 236.273 L 246.416 235.725 L 246.779 235.525 L 250.839 233.381 L 253.418 231.4 L 255.644 230.217 L 258.082 229.588 L 264.462 229.139 L 265.745 227.001 L 268.489 226.635 L 270.146 224.765 L 272.046 223.994 L 273.405 222.036 L 274.544 220.395 L 276.135 219.474 L 281.235 219.154 L 287.28 219.903 L 288.08 219.418 L 289.446 214.543 L 290.876 213.628 L 294.727 208.016 L 294.74 205.971 L 294.74 204.263 L 295.373 201.831 L 294.943 197.44 L 295.453 192.994 L 297.847 187.344 L 299.956 185.065 L 303.356 182.765 L 305.085 182.012 L 307.534 181.6 L 307.534 181.601 L 307.894 181.54 L 308.518 181.433 L 316.951 181.317 C 317.068 181.23 320.018 181.275 320.018 181.275 L 322.83 181.237 L 329.946 182.501 L 330.452 182.589 L 332.852 183.368 L 335.626 185.525 L 338.564 188.394 L 339.115 188.929 L 341.015 189.729 L 341.59 189.98 L 343.161 189.729 L 345.398 188.564 L 347.086 187.137 L 349.386 185.88 L 349.442 185.8 L 350.737 183.852 L 350.776 183.812 L 350.804 183.819 L 350.804 183.808 L 350.782 183.808 L 351.293 183.033 L 355.74 181.3 L 360.97 181 L 361.558 180.682 L 361.885 180.507 L 363.267 178.884 L 364.562 178.874 L 367.697 180.008 L 369.897 179.57 L 371.647 180.27 L 373.007 180.109 L 375.572 179.809 L 378.326 181.746 L 379.931 181.946 L 385.589 185.256 L 385.883 185.304 L 386.035 185.332 L 386.359 185.386 L 387.03 185.186 L 388.03 184.897 L 388.162 184.858 L 388.288 185.033 L 388.931 185.94 L 389.813 186.066 L 390.857 184.673 L 390.442 184.041 L 390.285 183.811 L 388.264 183.4 L 386.449 180.3 L 388.177 178.439 L 385.466 175.113 L 385.016 174.562 L 384.863 174.328 L 383.926 172.905 L 379.18 165.67 L 372.998 160.735 L 370.833 159.003 L 370.819 158.993 L 370.061 158.393 L 366.761 155.035 L 364.403 151.905 L 364.094 151.231 L 363.607 150.169 L 362.194 147.091 L 359.732 145.191 L 357.726 143 L 357.626 142.871 L 353.486 137.245 L 352.806 136.302 L 351.828 135.737 L 349.762 135.723 L 349.562 135.523 L 349.446 135.402 L 349.516 135.328 L 350.507 134.343 L 351.612 134.065 L 352.088 132.976 L 349.98 126.876 L 349.966 126.663 L 349.809 124.713 L 351.527 115.858 L 351.747 114.779 L 354.675 108.821 L 356.489 107.335 L 358.469 103.443 L 360.169 100.955 L 361.794 99.373 L 362.078 99.205 L 365.012 97.429 L 367.477 97.082 L 369.825 96.751 L 373.925 98.015 L 377.825 97.939 L 378.586 97.858 L 380.356 97.658 L 383.267 96.741 L 384.641 95.893 L 385.354 94.8 L 386.841 89.813 L 387.319 88.226 L 388.236 86.502 L 393.542 80.394 L 397.553 76.684 L 406.572 70.071 L 410.987 67.432 L 413.241 66.085 L 433.367 57.139 L 438.597 51.839 L 441.322 49.081 L 446.143 45.846 L 451.784 43.535 L 456.638 39.693 L 457.698 38.359 L 459.034 34.059 L 460.147 33.79 L 461.147 31.616 L 461.433 30.998 L 465.394 28.206 L 465.842 27.983 L 481.23 20.273 L 483.466 20.58 L 484.666 18.787 L 489.143 18.036 L 489.967 17.896 L 491.067 17.345 L 492.006 15.745 L 492.006 15.429 L 492.135 11.156 L 493.091 10.001 L 493.612 7.185 L 494.103 6.535 L 494.616 5.859 L 495.884 4.968 L 495.664 4.437 L 495.696 4.468 Z" fill="#d57800" transform="matrix(1, 0, 0, 1, 0, 1.4210854715202004e-14)"/>
</svg>